<?xml version="1.0" encoding="UTF-8" standalone="no"?>
<!-- Created with Inkscape (http://www.inkscape.org/) -->

<svg
   width="1200"
   height="627"
   viewBox="0 0 1200 627"
   version="1.1"
   id="svg1"
   inkscape:version="1.3.2 (091e20e, 2023-11-25)"
   sodipodi:docname="PaulaLogo2.0.svg"
   xmlns:inkscape="http://www.inkscape.org/namespaces/inkscape"
   xmlns:sodipodi="http://sodipodi.sourceforge.net/DTD/sodipodi-0.dtd"
   xmlns="http://www.w3.org/2000/svg"
   xmlns:svg="http://www.w3.org/2000/svg">
  <sodipodi:namedview
     id="namedview1"
     pagecolor="#505050"
     bordercolor="#eeeeee"
     borderopacity="1"
     inkscape:showpageshadow="0"
     inkscape:pageopacity="0"
     inkscape:pagecheckerboard="0"
     inkscape:deskcolor="#505050"
     inkscape:document-units="px"
     inkscape:zoom="0.37639553"
     inkscape:cx="599.10381"
     inkscape:cy="313.5"
     inkscape:window-width="1512"
     inkscape:window-height="945"
     inkscape:window-x="0"
     inkscape:window-y="37"
     inkscape:window-maximized="0"
     inkscape:current-layer="layer1" />
  <defs
     id="defs1">
    <rect
       x="92.987288"
       y="95.644068"
       width="1036.1441"
       height="217.85593"
       id="rect2" />
    <rect
       x="92.987288"
       y="98.300847"
       width="1044.1144"
       height="215.19915"
       id="rect1" />
  </defs>
  <g
     inkscape:label="Layer 1"
     inkscape:groupmode="layer"
     id="layer1">
    <text
       xml:space="preserve"
       id="text1"
       style="white-space:pre;shape-inside:url(#rect1);display:inline;fill:#800080" />
    <text
       xml:space="preserve"
       id="text2"
       style="font-style:normal;font-variant:normal;font-weight:normal;font-stretch:normal;font-size:120px;font-family:sans-serif;-inkscape-font-specification:'sans-serif, Normal';font-variant-ligatures:normal;font-variant-caps:normal;font-variant-numeric:normal;font-variant-east-asian:normal;white-space:pre;shape-inside:url(#rect2);display:inline;fill:#010002;fill-opacity:1"
       transform="matrix(1.2051051,0,0,1.2051051,-93.968716,66.958312)"><tspan
         x="92.986328"
         y="205.12417"
         id="tspan2">Paula <tspan
   style="font-weight:bold;font-family:Sans;-inkscape-font-specification:'Sans, Bold'"
   id="tspan1">Voorheis</tspan></tspan></text>
    <text
       xml:space="preserve"
       style="font-style:italic;font-variant:normal;font-weight:normal;font-stretch:normal;font-size:120px;font-family:Sans;-inkscape-font-specification:'Sans, Italic';font-variant-ligatures:normal;font-variant-caps:normal;font-variant-numeric:normal;font-variant-east-asian:normal;fill:#000000;fill-opacity:1"
       x="460.92773"
       y="460.04355"
       id="text4"><tspan
         sodipodi:role="line"
         id="tspan4"
         x="460.92773"
         y="460.04355">PhD</tspan></text>
    <path
       style="fill:#000000;fill-opacity:1"
       id="path4"
       d="m 762.15194,410.53426 c 20.13258,-3.6995 40.43873,-5.83752 60.82589,-7.53711 45.04281,-3.25119 90.27542,-3.74469 135.28703,0.2996 10.175,0.91423 20.30434,2.2803 30.45646,3.42045 47.39848,6.17909 93.90218,17.21618 140.22578,28.7218 0,0 -10.4387,-7.97142 -10.4387,-7.97142 v 0 c -45.9497,-10.93251 -92.0341,-21.52606 -138.94207,-27.55802 -10.14762,-1.11651 -20.27401,-2.44663 -30.44287,-3.34953 -45.4496,-4.03548 -91.13339,-3.80524 -136.64913,-1.06982 -20.87041,1.51968 -41.64908,3.65182 -62.39747,6.271 z" />
    <path
       style="fill:#000000;fill-opacity:1"
       id="path4-3"
       d="m 762.1519,402.90014 c 20.13258,3.6995 40.43873,5.83752 60.82589,7.53711 45.04281,3.25119 90.27542,3.74469 135.28703,-0.2996 10.175,-0.91423 20.3043,-2.2803 30.4565,-3.42045 47.39838,-6.17909 93.90208,-17.21618 140.22568,-28.7218 0,0 -10.4387,7.97142 -10.4387,7.97142 v 0 c -45.9497,10.93251 -92.0341,21.52606 -138.94198,27.55802 -10.1477,1.11651 -20.274,2.44663 -30.4429,3.34953 -45.4496,4.03548 -91.13339,3.80524 -136.64913,1.06982 -20.87041,-1.51968 -41.64908,-3.65182 -62.39747,-6.271 z" />
    <path
       style="fill:#000000;fill-opacity:1"
       id="path4-0"
       d="m 401.10978,410.53426 c -20.13258,-3.6995 -40.43873,-5.83752 -60.82589,-7.53711 -45.04281,-3.25119 -90.27542,-3.74469 -135.28703,0.2996 -10.175,0.91423 -20.30434,2.2803 -30.45646,3.42045 -47.3985,6.17909 -93.902201,17.21618 -140.225801,28.7218 0,0 10.4387,-7.97142 10.4387,-7.97142 v 0 c 45.9497,-10.93251 92.034101,-21.52606 138.942091,-27.55802 10.14762,-1.11651 20.27401,-2.44663 30.44287,-3.34953 45.4496,-4.03548 91.13339,-3.80524 136.64913,-1.06982 20.87041,1.51968 41.64908,3.65182 62.39747,6.271 z" />
    <path
       style="fill:#000000;fill-opacity:1"
       id="path4-0-0"
       d="m 401.10978,410.53426 c -20.13258,3.6995 -40.43873,5.83752 -60.82589,7.53711 -45.04281,3.25119 -90.27542,3.74469 -135.28703,-0.2996 -10.175,-0.91423 -20.30434,-2.2803 -30.45646,-3.42045 -47.3985,-6.17909 -93.9022,-17.21618 -140.2258,-28.7218 0,0 10.4387,7.97142 10.4387,7.97142 v 0 c 45.9497,10.93251 92.0341,21.52606 138.94209,27.55802 10.14762,1.11651 20.27401,2.44663 30.44287,3.34953 45.4496,4.03548 91.13339,3.80524 136.64913,1.06982 20.87041,-1.51968 41.64908,-3.65182 62.39747,-6.271 z" />
  </g>
</svg>
