<?xml version="1.0" encoding="UTF-8" standalone="no"?>
<!-- Created with Inkscape (http://www.inkscape.org/) -->

<svg
   width="1200"
   height="627"
   viewBox="0 0 1200 627"
   version="1.1"
   id="svg1"
   inkscape:version="1.3.2 (091e20e, 2023-11-25)"
   sodipodi:docname="logo.svg"
   xmlns:inkscape="http://www.inkscape.org/namespaces/inkscape"
   xmlns:sodipodi="http://sodipodi.sourceforge.net/DTD/sodipodi-0.dtd"
   xmlns="http://www.w3.org/2000/svg"
   xmlns:svg="http://www.w3.org/2000/svg">
  <sodipodi:namedview
     id="namedview1"
     pagecolor="#505050"
     bordercolor="#eeeeee"
     borderopacity="1"
     inkscape:showpageshadow="0"
     inkscape:pageopacity="0"
     inkscape:pagecheckerboard="0"
     inkscape:deskcolor="#505050"
     inkscape:document-units="px"
     inkscape:zoom="0.37639553"
     inkscape:cx="599.10382"
     inkscape:cy="312.17161"
     inkscape:window-width="1512"
     inkscape:window-height="916"
     inkscape:window-x="0"
     inkscape:window-y="38"
     inkscape:window-maximized="0"
     inkscape:current-layer="layer1" />
  <defs
     id="defs1">
    <rect
       x="92.987288"
       y="95.644068"
       width="1036.1441"
       height="217.85593"
       id="rect2" />
    <rect
       x="92.987288"
       y="98.300847"
       width="1044.1144"
       height="215.19915"
       id="rect1" />
  </defs>
  <g
     inkscape:label="Layer 1"
     inkscape:groupmode="layer"
     id="layer1">
    <text
       xml:space="preserve"
       id="text1"
       style="white-space:pre;shape-inside:url(#rect1);display:inline;fill:#800080" />
    <text
       xml:space="preserve"
       id="text2"
       style="font-style:normal;font-variant:normal;font-weight:normal;font-stretch:normal;font-size:120px;font-family:Baskerville;-inkscape-font-specification:'Baskerville, Normal';font-variant-ligatures:normal;font-variant-caps:normal;font-variant-numeric:normal;font-variant-east-asian:normal;white-space:pre;shape-inside:url(#rect2);display:inline;fill:#010002;fill-opacity:1"
       transform="matrix(1.2849115,0,0,1.2051051,-117.48925,61.644753)"><tspan
         x="92.986328"
         y="236.58395"
         id="tspan3"><tspan
           style="font-size:154.897px"
           id="tspan1">Paula Voorheis</tspan></tspan></text>
    <text
       xml:space="preserve"
       style="font-style:italic;font-variant:normal;font-weight:normal;font-stretch:normal;font-size:100.572px;font-family:Sans;-inkscape-font-specification:'Sans, Italic';font-variant-ligatures:normal;font-variant-caps:normal;font-variant-numeric:normal;font-variant-east-asian:normal;fill:#000000;fill-opacity:1;stroke-width:1.07755"
       x="455.65518"
       y="484.80615"
       id="text4"
       transform="scale(1.0775543,0.92802746)"><tspan
         sodipodi:role="line"
         id="tspan4"
         x="455.65518"
         y="484.80615"
         style="stroke-width:1.07755">PhD</tspan></text>
    <path
       style="fill:#000000;fill-opacity:1;stroke-width:1.03107"
       id="path4"
       d="m 757.37213,410.53426 c 21.40317,-3.6995 42.99087,-5.83752 64.66469,-7.53711 47.88553,-3.25119 95.97283,-3.74469 143.82518,0.2996 10.81716,0.91423 21.58578,2.2803 32.37856,3.42045 50.38984,6.17909 99.82854,17.21618 149.07564,28.7218 0,0 -11.0975,-7.97142 -11.0975,-7.97142 v 0 c -48.8496,-10.93251 -97.8425,-21.52606 -147.71086,-27.55802 -10.78805,-1.11651 -21.55353,-2.44663 -32.36416,-3.34953 -48.31799,-4.03548 -96.88495,-3.80524 -145.27325,-1.06982 -22.18757,1.51968 -44.27761,3.65182 -66.33546,6.271 z" />
    <path
       style="fill:#000000;fill-opacity:1;stroke-width:1.03107"
       id="path4-3"
       d="m 757.37216,418.38096 c 21.40317,3.6995 42.99087,5.83752 64.66469,7.53711 47.88553,3.25119 95.97283,3.74469 143.82518,-0.2996 10.81716,-0.91423 21.58574,-2.2803 32.37863,-3.42045 50.38974,-6.17909 99.82844,-17.21618 149.07554,-28.7218 0,0 -11.0975,7.97142 -11.0975,7.97142 v 0 c -48.8496,10.93251 -97.8425,21.52606 -147.7108,27.55802 -10.78813,1.11651 -21.55352,2.44663 -32.36419,3.34953 -48.31799,4.03548 -96.88495,3.80524 -145.27325,1.06982 -22.18757,-1.51968 -44.27761,-3.65182 -66.33546,-6.271 z" />
    <path
       style="fill:#000000;fill-opacity:1;stroke-width:1.03107"
       id="path4-2"
       d="m 442.62784,410.53426 c -21.40318,-3.6995 -42.99087,-5.83752 -64.66469,-7.53711 -47.88553,-3.25119 -95.97283,-3.74469 -143.82518,0.2996 -10.81716,0.91423 -21.58577,2.2803 -32.37861,3.42045 -50.38986,6.17909 -99.82847,17.21618 -149.075616,28.7218 0,0 11.0975,-7.97142 11.0975,-7.97142 v 0 c 48.849646,-10.93251 97.842496,-21.52606 147.710896,-27.55802 10.78805,-1.11651 21.55353,-2.44663 32.36416,-3.34953 48.31798,-4.03548 96.88494,-3.80524 145.27324,-1.06982 22.18756,1.51968 44.2776,3.65182 66.33545,6.271 z" />
    <path
       style="fill:#000000;fill-opacity:1;stroke-width:1.03107"
       id="path4-3-4"
       d="m 442.62781,418.38096 c -21.40318,3.6995 -42.99088,5.83752 -64.6647,7.53711 -47.88552,3.25119 -95.97282,3.74469 -143.82517,-0.2996 -10.81716,-0.91423 -21.58573,-2.2803 -32.37865,-3.42045 -50.38979,-6.17909 -99.8284,-17.21618 -149.075546,-28.7218 0,0 11.0975,7.97142 11.0975,7.97142 v 0 c 48.849646,10.93251 97.842496,21.52606 147.710826,27.55802 10.78814,1.11651 21.55352,2.44663 32.3642,3.34953 48.31798,4.03548 96.88494,3.80524 145.27323,1.06982 22.18757,-1.51968 44.27761,-3.65182 66.33546,-6.271 z" />
  </g>
</svg>
