<svg width="800" height="800" xmlns="http://www.w3.org/2000/svg" xmlns:undefined="http://www.inkscape.org/namespaces/inkscape">

 <g>
  <title>Layer 1</title>
  <g>

   <g transform="matrix(1.33333 0 0 -1.33333 0 1056)"   id="svg_2">
    <g transform="translate(0 172.614) scale(1 -1)" id="svg_3">
     <path fill-rule="nonzero" fill="#ed1c24" id="svg_13" d="m300.00252,-575.02346c0,0 0,0.0234 0,0.0234c0,0 -0.002,0 -0.002,0c0,0 -0.004,0 -0.004,0c0,0 0,-0.0234 0,-0.0234c-70.55664,0.00098 -134.45996,28.62598 -180.7334,74.89893c-46.27392,46.27392 -74.8999,110.17871 -74.90039,180.73779c0,0 0.02393,0 0.02393,0c0,0 0,0.002 0,0.002c0,0 0,0.004 0,0.004c0,0 -0.02393,0 -0.02393,0c0.00098,70.55664 28.62598,134.45898 74.89893,180.73242c46.27392,46.27539 110.17871,74.90039 180.7373,74.90039c0,0 0,-0.0234 0,-0.0234c0,0 0.002,0 0.002,0c0,0 0.004,0 0.004,0c0,0 0,0.0234 0,0.0234c70.55713,0 134.46143,-28.625 180.73291,-74.89843c46.27539,-46.27344 74.90039,-110.17969 74.90039,-180.73633c0,0 -0.0234,0 -0.0234,0c0,0 0,-0.002 0,-0.002c0,0 0,-0.005 0,-0.005c0,0 0.0234,0 0.0234,0c0,-70.55664 -28.625,-134.46045 -74.89843,-180.7334c-46.27344,-46.27392 -110.17774,-74.8999 -180.73682,-74.90039c0,0 0,0 0,0l-0.00049,0.00002zm0,67.12793c0,0 0,0.0234 0,0.0234c0,0 -0.002,0 -0.002,0c0,0 -0.004,0 -0.004,0c0,0 0,-0.0234 0,-0.0234c-52.02295,0.00049 -99.14453,21.11084 -133.26904,55.23535c-34.12598,34.12549 -55.23633,81.24805 -55.23682,133.27344c0,0 0.0234,0 0.0234,0c0,0 0,0.002 0,0.002c0,0 0,0.004 0,0.004c0,0 -0.0234,0 -0.0234,0c0.00098,52.02344 21.11084,99.14453 55.23535,133.26953c34.12549,34.125 81.24854,55.23633 133.27295,55.23633c0,0 0,-0.0234 0,-0.0234c0,0 0.002,0 0.002,0c0,0 0.004,0 0.004,0c0,0 0,0.0234 0,0.0234c52.02393,-0.002 99.14502,-21.11133 133.27002,-55.23633c34.125,-34.125 55.23633,-81.24805 55.23633,-133.27148c0,0 -0.0234,0 -0.0234,0c0,0 0,-0.002 0,-0.002c0,0 0,-0.005 0,-0.005c0,0 0.0234,0 0.0234,0c0,-52.02295 -21.11133,-99.14453 -55.23633,-133.26904c-34.125,-34.12598 -81.24804,-55.23682 -133.27197,-55.23682c0,0 0,0 0,0l-0.00049,0.00002zm-0.002,-11.97656c0,0 0.002,0 0.002,0c0,0 0,0.0234 0,0.0234c55.36768,0.00049 105.48877,22.43701 141.75635,58.70556c36.26758,36.26807 58.70312,86.38721 58.70508,141.75342c0,0 0.0234,0 0.0234,0c0,0 0,0.005 0,0.005c0,0 0,0.002 0,0.002c0,0 -0.0234,0 -0.0234,0c0,55.36718 -22.4375,105.48828 -58.70508,141.75586c-36.26953,36.26757 -86.38867,58.70312 -141.7544,58.70507c0,0 0,0.0234 0,0.0234c0,0 -0.004,0 -0.004,0c0,0 -0.002,0 -0.002,0c0,0 0,-0.0234 0,-0.0234c-55.36816,0 -105.48877,-22.4375 -141.75683,-58.70703c-36.26758,-36.26757 -58.70362,-86.38672 -58.70459,-141.75195c0,0 -0.0234,0 -0.0234,0c0,0 0,-0.004 0,-0.004c0,0 0,-0.002 0,-0.002c0,0 0.0234,0 0.0234,0c0.00049,-55.36865 22.43701,-105.48926 58.70605,-141.75781c36.26758,-36.26758 86.38672,-58.70313 141.75293,-58.7041c0,0 0,-0.0234 0,-0.0234c0,0 0.004,0 0.004,0c0,0 0,0 0,0l0.00049,-0.00002zm0,-67.12793c0,0 0.002,0 0.002,0c0,0 0,0.0234 0,0.0234c73.90088,0.00049 140.80518,29.95215 189.22119,78.36963c48.41602,48.41601 78.36719,115.31738 78.36719,189.21728c0,0 0.0234,0 0.0234,0c0,0 0,0.005 0,0.005c0,0 0,0.002 0,0.002c0,0 -0.0234,0 -0.0234,0c0,73.90039 -29.95117,140.80273 -78.36914,189.2207c-48.41602,48.41602 -115.31641,78.36719 -189.21729,78.36719c0,0 0,0.0234 0,0.0234c0,0 -0.004,0 -0.004,0c0,0 -0.002,0 -0.002,0c0,0 0,-0.0234 0,-0.0234c-73.90185,0 -140.8042,-29.95117 -189.22119,-78.36914c-48.4165,-48.41602 -78.3667,-115.31641 -78.36816,-189.2168c0,0 -0.02344,0 -0.02344,0c0,0 0,-0.004 0,-0.004c0,0 0,-0.002 0,-0.002c0,0 0.02344,0 0.02344,0c0.00049,-73.90234 29.95263,-140.80517 78.36963,-189.22168c48.4165,-48.4165 115.31738,-78.36719 189.21728,-78.36816c0,0 0,-0.0234 0,-0.0234c0,0 0.004,0 0.004,0c0,0 0,0 0,0l0.00049,-0.00002z"/>
     <path fill-rule="evenodd" fill="#ffffff" id="svg_12" d="m300.03084,-139.7383c0,0 -0.0303,0.0117 -0.0303,0.0117c0,0 -0.0303,-0.0117 -0.0303,-0.0117c-23.42871,-9.21875 -40.65478,-21.8125 -68.85302,-44.00586c-28.22266,-22.21289 -52.73194,-60.19531 -52.73194,-97.96875c0,0 0,-166.84473 0,-166.84473c0,0 121.58496,-0.16797 121.58496,-0.16797c0,0 0.0605,0 0.0605,0c0,0 121.58545,0.16797 121.58545,0.16797c0,0 0,166.84473 0,166.84473c0,37.77344 -24.50977,75.75586 -52.73242,97.96875c-28.19727,22.19336 -45.42383,34.78711 -68.85303,44.00586c0,0 0,0 0,0l0.0001,0z"/>
     <path fill-rule="nonzero" fill="#ed1c24" id="svg_11" d="m294.3282,-148.62893c0,0 -0.00049,-189.64599 -0.00049,-189.64599c0,0 -109.94238,0 -109.94238,0c0,0 0,56.56201 0,56.56201c0,25.72266 12.12598,51.67969 28.97022,72.15234c3.2749,3.98047 6.75293,7.77344 10.37695,11.33594c3.55078,3.49023 7.26465,6.75977 11.08545,9.76758c0,0 0,0 0,0c0,0 0.002,0.002 0.002,0.002c14.08154,11.08399 25.36914,19.73242 35.79297,26.58594c7.92139,5.20898 15.51904,9.51172 23.71484,13.24023c0,0 0,0 0,0l0.00044,-0.00005zm121.28809,-189.64599c0,0 -110.95313,0 -110.95313,0c0,0 0,190.10107 0,190.10107c8.58399,-3.83398 16.47852,-8.27344 24.72461,-13.69531c10.42383,-6.85352 21.71094,-15.50195 35.79297,-26.58594c11.35352,-8.93555 22.06641,-20.50586 30.67578,-33.58203c1.62891,-2.47461 3.22266,-5.08008 4.77344,-7.80859c9.18164,-16.16016 15.00977,-34.08985 15.00977,-51.86328c0,0 -0.0234,0 -0.0234,0c0,0 0,-0.004 0,-0.004c0,0 0,-56.56201 0,-56.56201c0,0 0,0 0,0l-0.00004,0.00009zm-231.23096,-10.33545c0,0 231.23096,0 231.23096,0c0,0 0,-93.97901 0,-93.97901c0,0 -115.58545,-0.15966 -115.58545,-0.15966c0,0 0,0.0234 0,0.0234c0,0 -0.0605,0 -0.0605,0c0,0 0,-0.0234 0,-0.0234c0,0 -115.58496,0.15966 -115.58496,0.15966c0,0 0,93.97901 0,93.97901c0,0 0,0 0,0l-0.00005,0zm79.66553,196.72558c-11.09473,-7.29492 -22.521,-16.03906 -36.63672,-27.14843c0,0 0,0 0,0c0,0 -0.002,-0.002 -0.002,-0.002c-4.08057,-3.21289 -8.12402,-6.78125 -12.06983,-10.6582c-3.87255,-3.80664 -7.63232,-7.91406 -11.2207,-12.27344c-18.45166,-22.42578 -31.73584,-51.07617 -31.73584,-79.74609c0,0 0,-166.84473 0,-166.84473c0,0 0,-5.96777 0,-5.96777c0,0 6,-0.009 6,-0.009c0,0 121.58496,-0.16797 121.58496,-0.16797c0,0 0,-0.0234 0,-0.0234c0,0 0.0605,0 0.0605,0c0,0 0,0.0234 0,0.0234c0,0 121.58545,0.16797 121.58545,0.16797c0,0 6,0.009 6,0.009c0,0 0,5.96777 0,5.96777c0,0 0,166.84473 0,166.84473c0,0 0,0.004 0,0.004c0,0 -0.0234,0 -0.0234,0c0,19.99609 -6.42969,39.94335 -16.55664,57.76953c-1.59375,2.80468 -3.33008,5.63086 -5.19531,8.46484c-9.36719,14.22656 -20.98047,26.7793 -33.25391,36.44141c-14.11523,11.10937 -25.54101,19.85351 -36.63672,27.14843c-11.29882,7.42969 -23.23437,13.84375 -35.93603,18.53321c-12.70899,-4.63672 -24.67725,-11.11133 -35.96338,-18.53321c0,0 0,0 0,0l-0.00043,-0.00005z"/>
     <path fill-rule="nonzero" fill="#ed1c24" id="svg_10" d="m295.05916,-201.95705c-1.25146,-1.3125 -3.11572,-2.13086 -5.69482,-2.57227c-3.32129,-0.57031 -7.58838,-0.50976 -12.92823,-0.0117c-1.95703,0.1836 -5.00634,0.53516 -8.21533,0.90625c-10.84863,1.25 -23.68017,2.73047 -34.45459,1.25586c0,0 -0.0234,0 -0.0234,0c0,0 -0.02,-0.002 -0.02,-0.002c0,0 -5.07177,-0.71289 -5.07177,-0.71289c0,0 0,-5.2168 0,-5.2168c0,0 0,-14.40039 0,-14.40039c0,0 -12.33301,0 -12.33301,0c0,0 0,-14.34375 0,-14.34375c0,0 12.33301,0 12.33301,0c0,0 0,-15.87304 0,-15.87304c0,0 -12.33301,0 -12.33301,0c0,0 0,-14.34375 0,-14.34375c0,0 12.33301,0 12.33301,0c0,0 0,-20.24024 0,-20.24024c0,0 -12.33301,0 -12.33301,0c0,0 0,-14.3418 0,-14.3418c0,0 12.33301,0 12.33301,0c0,0 0,-17.75 0,-17.75c12.79004,0 26.22363,-0.27246 38.91894,-1.73437c2.71094,-0.3125 5.28125,-0.60986 8.44336,-0.90527c6.34668,-0.59278 11.56641,-0.6377 15.89844,0.10498c3.09033,0.52978 5.7666,1.44726 8.08789,2.81787c2.32178,-1.37061 4.99951,-2.28809 8.08936,-2.81787c4.33203,-0.74268 9.55273,-0.69776 15.89843,-0.10498c3.16211,0.29541 5.73242,0.59277 8.44336,0.90527c12.69531,1.46191 26.12891,1.73437 38.91992,1.73437c0,0 0,17.75 0,17.75c0,0 12.33204,0 12.33204,0c0,0 0,14.3418 0,14.3418c0,0 -12.33204,0 -12.33204,0c0,0 0,20.24024 0,20.24024c0,0 12.33204,0 12.33204,0c0,0 0,14.34375 0,14.34375c0,0 -12.33204,0 -12.33204,0c0,0 0,15.87304 0,15.87304c0,0 12.33204,0 12.33204,0c0,0 0,14.34375 0,14.34375c0,0 -12.33204,0 -12.33204,0c0,0 0,14.40039 0,14.40039c0,0 0,5.2168 0,5.2168c0,0 -5.07226,0.71289 -5.07226,0.71289c0,0 -0.0195,0.002 -0.0195,0.002c0,0 -0.0234,0 -0.0234,0c-10.77539,1.47461 -23.60547,-0.006 -34.45508,-1.25586c-3.20898,-0.37109 -6.25781,-0.72265 -8.21484,-0.90625c-5.33985,-0.49804 -9.60742,-0.55859 -12.92969,0.0117c-2.57812,0.44141 -4.89844,1.25977 -6.15039,2.57227c0,0 -9.42627,0 -9.42627,0c0,0 0,0 0,0l-0.00013,0zm21.02979,-34.18164c0,0 0,7.97851 0,7.97851c2.82617,0.0391 5.44921,0.11914 8.02343,0.29883c2.62891,0.18555 5.31055,0.49024 8.27344,0.98828c0,0 0.084,0.0137 0.084,0.0137c0.58399,0.0977 1.48438,0.23047 2.67969,0.39649c1.10156,0.15234 1.99414,0.26562 2.6875,0.34375c4.3125,0.48047 8.75781,0.70898 13.11914,0.73242c0,0 0,-7.98633 0,-7.98633c-4.17187,-0.0117 -8.44726,-0.22461 -12.61914,-0.6914c-1.04687,-0.11719 -1.88476,-0.21875 -2.5,-0.30274c-0.52148,-0.0723 -1.32617,-0.19922 -2.42969,-0.38476c0,0 -0.084,-0.0137 -0.084,-0.0137c-3.06445,-0.51562 -6.01953,-0.84375 -9.05469,-1.05664c-2.68945,-0.1875 -5.35547,-0.27343 -8.17968,-0.3164c0,0 0,0 0,0l0,-0.00001zm0,-20.58203c0,0 0,7.97851 0,7.97851c2.82617,0.0391 5.44921,0.11914 8.02343,0.29883c2.62891,0.18555 5.31055,0.49023 8.27344,0.98828c0,0 0.084,0.0137 0.084,0.0137c0.58399,0.0977 1.48438,0.23047 2.67969,0.39649c1.10156,0.15234 1.99414,0.26562 2.6875,0.34375c4.3125,0.48047 8.75781,0.70898 13.11914,0.73242c0,0 0,-7.98633 0,-7.98633c-4.17187,-0.0117 -8.44726,-0.22656 -12.61914,-0.6914c-1.04687,-0.11719 -1.88476,-0.21875 -2.5,-0.30274c-0.52148,-0.0723 -1.32617,-0.19922 -2.42969,-0.38476c0,0 -0.084,-0.0137 -0.084,-0.0137c-3.06445,-0.51562 -6.01953,-0.84375 -9.05469,-1.05664c-2.68945,-0.1875 -5.35547,-0.27343 -8.17968,-0.3164c0,0 0,0 0,0l0,-0.00001zm0,-20.58203c0,0 0,7.97851 0,7.97851c2.82617,0.0391 5.44921,0.11914 8.02343,0.29883c2.62891,0.18555 5.31055,0.49023 8.27344,0.98828c0,0 0.084,0.0137 0.084,0.0137c0.58399,0.0977 1.48438,0.23047 2.67969,0.39649c1.10156,0.15234 1.99414,0.26562 2.6875,0.34375c4.3125,0.48047 8.75781,0.70898 13.11914,0.73242c0,0 0,-7.98633 0,-7.98633c-4.17187,-0.0117 -8.44726,-0.22656 -12.61914,-0.69141c-1.04687,-0.11718 -1.88476,-0.21875 -2.5,-0.30273c-0.52148,-0.0723 -1.32617,-0.19922 -2.42969,-0.38477c0,0 -0.084,-0.0137 -0.084,-0.0137c-3.06445,-0.51562 -6.01953,-0.84375 -9.05469,-1.05664c-2.68945,-0.1875 -5.35547,-0.27344 -8.17968,-0.3164c0,0 0,0 0,0zm0,-12.60157c2.82617,0.0371 5.44921,0.11719 8.02343,0.29688c2.62891,0.18554 5.31055,0.49023 8.27344,0.98828c0,0 0.084,0.0137 0.084,0.0137c0.58399,0.0977 1.48438,0.23047 2.67969,0.39649c1.10156,0.15234 1.99414,0.26562 2.6875,0.34375c4.3125,0.48046 8.75781,0.70898 13.11914,0.73242c0,0 0,-7.98633 0,-7.98633c-4.17187,-0.01 -8.44726,-0.22656 -12.61914,-0.69141c-1.04687,-0.11718 -1.88476,-0.21875 -2.5,-0.30273c-0.52148,-0.0723 -1.32617,-0.19922 -2.42969,-0.38477c0,0 -0.084,-0.0137 -0.084,-0.0137c-3.06445,-0.51562 -6.01953,-0.84375 -9.05469,-1.05664c-2.68945,-0.1875 -5.35547,-0.27344 -8.17968,-0.31445c0,0 0,7.97851 0,7.97851c0,0 0,0 0,0zm-32.17725,53.76563c0,0 0,7.97851 0,7.97851c-2.8252,0.0391 -5.44971,0.11914 -8.02246,0.29883c-2.62842,0.18555 -5.31153,0.49024 -8.27344,0.98828c0,0 -0.085,0.0137 -0.085,0.0137c-0.5835,0.0977 -1.4834,0.23047 -2.67871,0.39649c-1.10205,0.15234 -1.99512,0.26562 -2.68848,0.34375c-4.3125,0.48047 -8.75635,0.70898 -13.11963,0.73242c0,0 0,-7.98633 0,-7.98633c4.17188,-0.0117 8.44922,-0.22461 12.61963,-0.6914c1.04639,-0.11719 1.88574,-0.21875 2.50098,-0.30274c0.52099,-0.0723 1.32568,-0.19922 2.42871,-0.38476c0,0 0.0845,-0.0137 0.0845,-0.0137c3.06397,-0.51562 6.01905,-0.84375 9.05518,-1.05664c2.68896,-0.1875 5.35498,-0.27343 8.17871,-0.3164c0,0 0,0 0,0l0.00001,-0.00001zm0,-20.58203c0,0 0,7.97851 0,7.97851c-2.8252,0.0391 -5.44971,0.11914 -8.02246,0.29883c-2.62842,0.18555 -5.31153,0.49023 -8.27344,0.98828c0,0 -0.085,0.0137 -0.085,0.0137c-0.5835,0.0977 -1.4834,0.23047 -2.67871,0.39649c-1.10205,0.15234 -1.99512,0.26562 -2.68848,0.34375c-4.3125,0.48047 -8.75635,0.70898 -13.11963,0.73242c0,0 0,-7.98633 0,-7.98633c4.17188,-0.0117 8.44922,-0.22656 12.61963,-0.6914c1.04639,-0.11719 1.88574,-0.21875 2.50098,-0.30274c0.52099,-0.0723 1.32568,-0.19922 2.42871,-0.38476c0,0 0.0845,-0.0137 0.0845,-0.0137c3.06397,-0.51562 6.01905,-0.84375 9.05518,-1.05664c2.68896,-0.1875 5.35498,-0.27343 8.17871,-0.3164c0,0 0,0 0,0l0.00001,-0.00001zm0,-20.58203c0,0 0,7.97851 0,7.97851c-2.8252,0.0391 -5.44971,0.11914 -8.02246,0.29883c-2.62842,0.18555 -5.31153,0.49023 -8.27344,0.98828c0,0 -0.085,0.0137 -0.085,0.0137c-0.5835,0.0977 -1.4834,0.23047 -2.67871,0.39649c-1.10205,0.15234 -1.99512,0.26562 -2.68848,0.34375c-4.3125,0.48047 -8.75635,0.70898 -13.11963,0.73242c0,0 0,-7.98633 0,-7.98633c4.17188,-0.0117 8.44922,-0.22656 12.61963,-0.69141c1.04639,-0.11718 1.88574,-0.21875 2.50098,-0.30273c0.52099,-0.0723 1.32568,-0.19922 2.42871,-0.38477c0,0 0.0845,-0.0137 0.0845,-0.0137c3.06397,-0.51562 6.01905,-0.84375 9.05518,-1.05664c2.68896,-0.1875 5.35498,-0.27344 8.17871,-0.3164c0,0 0,0 0,0l0.00001,0zm0,-12.60157c-2.8252,0.0371 -5.44971,0.11719 -8.02246,0.29688c-2.62842,0.18554 -5.31153,0.49023 -8.27344,0.98828c0,0 -0.085,0.0137 -0.085,0.0137c-0.5835,0.0977 -1.4834,0.23047 -2.67871,0.39649c-1.10205,0.15234 -1.99512,0.26562 -2.68848,0.34375c-4.3125,0.48046 -8.75635,0.70898 -13.11963,0.73242c0,0 0,-7.98633 0,-7.98633c4.17188,-0.01 8.44922,-0.22656 12.61963,-0.69141c1.04639,-0.11718 1.88574,-0.21875 2.50098,-0.30273c0.52099,-0.0723 1.32568,-0.19922 2.42871,-0.38477c0,0 0.0845,-0.0137 0.0845,-0.0137c3.06397,-0.51562 6.01905,-0.84375 9.05518,-1.05664c2.68896,-0.1875 5.35498,-0.27344 8.17871,-0.31445c0,0 0,7.97851 0,7.97851c0,0 0,0 0,0l0.00001,0zm-43.56348,-17.74609c0,0 0,93.84961 0,93.84961c8.38477,0.35937 18.12793,-0.76367 26.59326,-1.74024c2.71143,-0.3125 5.28125,-0.61132 8.44336,-0.90625c6.34619,-0.59179 11.56641,-0.63671 15.89893,0.10547c3.37305,0.57813 6.25244,1.61719 8.71631,3.20508c2.46387,-1.58789 5.34472,-2.62695 8.71777,-3.20508c4.33203,-0.74218 9.55274,-0.69726 15.89844,-0.10547c3.16211,0.29493 5.73242,0.59375 8.44336,0.90625c8.46484,0.97657 18.20898,2.09961 26.59375,1.74024c0,0 0,-93.84961 0,-93.84961c-9.34766,0.42773 -19.5918,-0.75391 -28.50195,-1.78125c-3.20899,-0.37109 -6.25782,-0.72266 -8.21485,-0.90625c-5.33984,-0.49805 -9.60742,-0.55664 -12.92773,0.0117c-2.58008,0.44336 -4.44336,1.25976 -5.69532,2.57422c0,0 -4.31298,-4.30469 -4.31298,-4.30469c0,0 -4.31299,4.30469 -4.31299,4.30469c-1.25147,-1.31446 -3.11572,-2.13086 -5.69483,-2.57422c-3.32129,-0.56836 -7.58838,-0.50977 -12.92822,-0.0117c-1.95703,0.18359 -5.00635,0.53516 -8.21533,0.90625c-8.90967,1.02734 -19.1543,2.20898 -28.50098,1.78125c0,0 0,0 0,0z"/>
     <path fill-rule="evenodd" fill="#ffffff" id="svg_9" d="m240.57332,-429.08059c0,0 0.0508,0 0.0508,0c0,0 30.64209,0.00098 30.64209,0.00098c0,12.93555 0,28.08447 0,41.57373c0,9.9585 -21.03711,21.32861 -30.66748,27.00342c-9.70508,-5.84717 -30.66748,-17.28955 -30.66748,-27.00342c0,-13.48926 0,-28.63818 0,-41.57373c0,0 30.64209,-0.00098 30.64209,-0.00098c0,0 0,0 0,0l-0.00002,0z"/>
     <path fill-rule="nonzero" fill="#ed1c24" id="svg_8" d="m265.2657,-400.50002c0,0 -49.33447,0 -49.33447,0c0,0 0,12.99414 0,12.99414c0,5.40039 15.35352,14.51611 24.6958,20.04981c0,0 1.33643,-0.78565 1.33643,-0.78565c0,0 0.002,-0.001 0.002,-0.001c9.30371,-5.43604 23.32129,-13.9126 23.32373,-19.25977c0,0 -0.0239,0 -0.0239,0c0,0 0,-0.003 0,-0.003c0,0 0,-12.99414 0,-12.99414c0,0 0,0 0,0l0.00041,-0.00039zm-49.33447,-11.39502c0,0 49.33447,0 49.33447,0c0,0 0,-11.20801 0,-11.20801c0,0 -24.6416,-0.00097 -24.6416,-0.00097c0,0 0,0.0234 0,0.0234c0,0 -0.0508,0 -0.0508,0c0,0 0,-0.0234 0,-0.0234c0,0 -24.64209,0.00097 -24.64209,0.00097c0,0 0,11.20801 0,11.20801c0,0 0,0 0,0l0.00002,0zm24.64209,-23.18555c0,0 0.0508,0 0.0508,0c0,0 0,0.0234 0,0.0234c0,0 30.64209,0.00098 30.64209,0.00098c0,0 6,0.00049 6,0.00049c0,0 0,5.97607 0,5.97607c0,0 0,41.57373 0,41.57373c0,0 0,0.003 0,0.003c0,0 -0.0234,0 -0.0234,0c-0.005,11.91064 -17.5791,22.81201 -29.2373,29.62354c-3.04297,1.77783 3.64307,-2.19678 -4.3833,2.5332c0,0 -3.07276,1.81103 -3.07276,1.81103c0,0 -3.04443,-1.83447 -3.04443,-1.83447c-1.27978,-0.77148 -2.05078,-1.22851 -2.86572,-1.71094c-11.55371,-6.84375 -30.70801,-18.19091 -30.70801,-30.42529c0,0 0,-41.57373 0,-41.57373c0,0 0,-5.97607 0,-5.97607c0,0 6,-0.00049 6,-0.00049c0,0 30.64209,-0.00098 30.64209,-0.00098c0,0 0,-0.0234 0,-0.0234c0,0 0,0 0,0l-0.00006,-0.00007z"/>
     <path fill-rule="evenodd" fill="#ffffff" id="svg_7" d="m359.37801,-429.08059c0,0 0.0508,0 0.0508,0c0,0 30.64062,0.00098 30.64062,0.00098c0,12.93555 0,28.08447 0,41.57373c0,9.9585 -21.03711,21.32861 -30.66601,27.00342c-9.70508,-5.84717 -30.66797,-17.28955 -30.66797,-27.00342c0,-13.48926 0,-28.63818 0,-41.57373c0,0 30.64258,-0.00098 30.64258,-0.00098c0,0 0,0 0,0l-0.00002,0z"/>
     <path fill-rule="nonzero" fill="#ed1c24" id="svg_6" d="m384.06941,-388.81887c0,0 -24.66601,-17.02148 -24.66601,-17.02148c0,0 -24.66797,17.02148 -24.66797,17.02148c0,0 0,1.31299 0,1.31299c0,5.40039 15.35352,14.51611 24.69531,20.04981c0,0 1.33594,-0.78565 1.33594,-0.78565c0,0 0.004,-0.001 0.004,-0.001c9.30273,-5.43604 23.32031,-13.9126 23.32226,-19.25977c0,0 -0.0234,0 -0.0234,0c0,0 0,-0.003 0,-0.003c0,0 0,-1.31299 0,-1.31299c0,0 0,0 0,0l-0.00013,-0.00039zm-49.33398,-13.78369c0,0 24.66797,-17.02148 24.66797,-17.02148c0,0 24.66601,17.02148 24.66601,17.02148c0,0 0,-20.50049 0,-20.50049c0,0 -24.64062,-0.00097 -24.64062,-0.00097c0,0 0,0.0234 0,0.0234c0,0 -0.0508,0 -0.0508,0c0,0 0,-0.0234 0,-0.0234c0,0 -24.64258,0.00097 -24.64258,0.00097c0,0 0,20.50049 0,20.50049c0,0 0,0 0,0l0.00002,0zm24.64258,-32.47803c0,0 0.0508,0 0.0508,0c0,0 0,0.0234 0,0.0234c0,0 30.64062,0.00098 30.64062,0.00098c0,0 6,0.00049 6,0.00049c0,0 0,5.97607 0,5.97607c0,0 0,41.57373 0,41.57373c0,0 0,0.003 0,0.003c0,0 -0.0234,0 -0.0234,0c-0.004,11.91064 -17.57813,22.81201 -29.23633,29.62354c-3.04297,1.77783 3.64258,-2.19678 -4.38281,2.5332c0,0 -3.07422,1.81103 -3.07422,1.81103c0,0 -3.04297,-1.83447 -3.04297,-1.83447c-1.28125,-0.77148 -2.05078,-1.22851 -2.86719,-1.71094c-11.55273,-6.84375 -30.70703,-18.19091 -30.70703,-30.42529c0,0 0,-41.57373 0,-41.57373c0,0 0,-5.97607 0,-5.97607c0,0 6,-0.00049 6,-0.00049c0,0 30.64258,-0.00098 30.64258,-0.00098c0,0 0,-0.0234 0,-0.0234c0,0 0,0 0,0l-0.00005,-0.00007z"/>
     <path fill-rule="nonzero" fill="#ed1c24" id="svg_5" d="m507.96785,-335.21926c0,0 0.64649,7.3916 0.64649,7.3916c0,0 14.57226,-1.2749 14.57226,-1.2749c0,0 23.43555,11.25098 23.43555,11.25098c0,0 -0.6836,-7.81494 -0.6836,-7.81494c0,0 -16.24609,-7.51661 -16.24609,-7.51661c0,0 14.70899,-10.06543 14.70899,-10.06543c0,0 -0.75782,-8.65869 -0.75782,-8.65869c0,0 -21.10351,15.4126 -21.10351,15.4126c0,0 -14.57227,1.27539 -14.57227,1.27539c0,0 0,0 0,0zm-7.08594,-40.01904c0,0 2.04493,7.13232 2.04493,7.13232c0,0 29.95703,-8.58984 29.95703,-8.58984c0,0 2.92187,10.18945 2.92187,10.18945c0,0 5.60352,-1.60693 5.60352,-1.60693c0,0 -7.88867,-27.51123 -7.88867,-27.51123c0,0 -5.60352,1.60693 -5.60352,1.60693c0,0 2.92188,10.18897 2.92188,10.18897c0,0 -29.95704,8.59033 -29.95704,8.59033c0,0 0,0 0,0zm-9.61132,-28.40723c0,0 2.77929,6.8794 2.77929,6.8794c0,0 34.30078,-13.85791 34.30078,-13.85791c0,0 -2.77929,-6.87989 -2.77929,-6.87989c0,0 -34.30078,13.8584 -34.30078,13.8584c0,0 0,0 0,0zm24.0625,-32.87744c-0.57032,-2.79199 -1.6875,-5.57373 -3.27735,-8.32812c-3.25976,-5.64551 -9.08203,-9.68897 -16.24219,-5.55469c-10.60351,6.12109 0.0293,18.70898 -6.07421,22.23388c-2.89258,1.66895 -6.01172,-0.87402 -7.41797,-3.30664c-1.45703,-2.52441 -2.13477,-5.49951 -2.21289,-8.3916c0,0 -6.12696,2.74219 -6.12696,2.74219c1.03907,3.62207 1.48243,5.44775 3.4961,8.93604c3.73633,6.47168 9.61328,10.48437 16.63476,6.42968c10.74024,-6.20117 0.29102,-18.89453 5.84571,-22.10156c3.48828,-2.01367 6.09375,0.27588 7.36718,2.47852c1.29883,2.24951 2.0918,4.79004 2.38477,7.31298c0,0 5.62305,-2.45068 5.62305,-2.45068c0,0 0,0 0,0zm-68.1211,-31.35596c0,0 4.86719,5.6001 4.86719,5.6001c0,0 11.59961,-10.08349 11.59961,-10.08349c0,0 1.56445,1.7998 1.56445,1.7998c2.05274,2.35986 1.87891,3.77539 0.49414,6.3833c0,0 -5.80078,10.93994 -5.80078,10.93994c0,0 5.42578,6.24024 5.42578,6.24024c0,0 7.02539,-13.97217 7.02539,-13.97217c0.75196,-1.63867 1.50782,-3.83936 0.30664,-5.46387c0,0 0.0801,-0.0693 0.0801,-0.0693c3.57422,3.14257 8.20703,2.97802 11.48633,0.12695c7.75977,-6.74561 1.33594,-13.73194 -3.87891,-19.73145c0,0 -5.25,-6.04004 -5.25,-6.04004c0,0 -27.91992,24.27002 -27.91992,24.27002c0,0 0,0 0,0l-0.00002,-0.00003zm28.38672,-14.8457c0,0 1.59961,1.84033 1.59961,1.84033c2.43359,2.79981 4.86523,6.16358 1.50586,9.08399c-3.47852,3.0249 -6.62695,0.21289 -9.02539,-2.54688c0,0 -1.59961,-1.84033 -1.59961,-1.84033c0,0 7.51953,-6.53711 7.51953,-6.53711c0,0 0,0 0,0zm-56.44141,-8.5918c0,0 17.29102,13.50879 17.29102,13.50879c0,0 3.58984,-4.59424 3.58984,-4.59424c0,0 -11.44336,-8.94091 -11.44336,-8.94091c0,0 6.39454,-8.18604 6.39454,-8.18604c0,0 10.40039,8.125 10.40039,8.125c0,0 3.58789,-4.59375 3.58789,-4.59375c0,0 -10.39844,-8.125 -10.39844,-8.125c0,0 5.61133,-7.18359 5.61133,-7.18359c0,0 11.36133,8.875 11.36133,8.875c0,0 3.58984,-4.59375 3.58984,-4.59375c0,0 -17.20703,-13.44336 -17.20703,-13.44336c0,0 -22.77735,29.15185 -22.77735,29.15185c0,0 0,0 0,0zm-30.20703,-17.29882c0,0 8.12305,4.13867 8.12305,4.13867c0,0 27.89258,-27.30762 27.89258,-27.30762c0,0 -6.56445,-3.34473 -6.56445,-3.34473c0,0 -21.54493,21.61963 -21.54493,21.61963c0,0 -0.0937,-0.0479 -0.0937,-0.0479c0,0 4.73243,-30.18555 4.73243,-30.18555c0,0 -7.08399,-3.60937 -7.08399,-3.60937c0,0 -5.46094,38.73682 -5.46094,38.73682c0,0 0,0 0,0l-0.00005,0.00005zm-30.05078,-11.2461c0,0 7.05664,2.29297 7.05664,2.29297c0,0 11.43164,-35.18359 11.43164,-35.18359c0,0 -7.05664,-2.29248 -7.05664,-2.29248c0,0 -11.43164,35.1831 -11.43164,35.1831c0,0 0,0 0,0zm-45.37109,-8.60254c0,0 7.04883,0.86573 7.04883,0.86573c0,0 3.37109,-27.45997 3.37109,-27.45997c0,0 0.10547,0.0127 0.10547,0.0127c0,0 10.67383,29.18457 10.67383,29.18457c0,0 8.99609,1.10449 8.99609,1.10449c0,0 4.50781,-36.71826 4.50781,-36.71826c0,0 -7.04882,-0.86572 -7.04882,-0.86572c0,0 -3.3711,27.46045 -3.3711,27.46045c0,0 -0.10547,-0.0132 -0.10547,-0.0132c0,0 -10.62109,-29.17822 -10.62109,-29.17822c0,0 -9.04883,-1.11084 -9.04883,-1.11084c0,0 -4.50781,36.71826 -4.50781,36.71826c0,0 0,0 0,0l0,0.00001zm-47.12256,-11.43213c0.69141,9.88672 6.58105,13.57471 16.04492,12.91309c9.46387,-0.66162 14.78272,-5.13379 14.09131,-15.02051c0,0 -1.64893,-23.58008 -1.64893,-23.58008c0,0 -7.40136,0.51709 -7.40136,0.51709c0,0 1.48974,21.30713 1.48974,21.30713c0.43994,6.29199 -1.28076,10.55615 -6.93799,10.95166c-5.65722,0.396 -7.95458,-3.58789 -8.39453,-9.87939c0,0 -1.49023,-21.30713 -1.49023,-21.30713c0,0 -7.40186,0.51758 -7.40186,0.51758c0,0 1.64893,23.58056 1.64893,23.58056c0,0 0,0 0,0zm-46.16748,26.58789c0,0 20.71631,-6.73095 20.71631,-6.73095c0,0 -1.80127,-5.54492 -1.80127,-5.54492c0,0 -13.66016,4.43847 -13.66016,4.43847c0,0 -9.62988,-29.63867 -9.62988,-29.63867c0,0 -7.05713,2.29248 -7.05713,2.29248c0,0 11.43213,35.18359 11.43213,35.18359c0,0 0,0 0,0zm-30.6377,15.67579c0,0 19.05127,-10.56055 19.05127,-10.56055c0,0 -2.82617,-5.09863 -2.82617,-5.09863c0,0 -12.56201,6.96337 -12.56201,6.96337c0,0 -15.10889,-27.25732 -15.10889,-27.25732c0,0 -6.48925,3.59766 -6.48925,3.59766c0,0 17.93505,32.35547 17.93505,32.35547c0,0 0,0 0,0zm-30.46923,22.229c0,0 17.29052,-13.50879 17.29052,-13.50879c0,0 -3.58935,-4.59424 -3.58935,-4.59424c0,0 -11.44336,8.94092 -11.44336,8.94092c0,0 -6.39551,-8.18603 -6.39551,-8.18603c0,0 10.39893,-8.12452 10.39893,-8.12452c0,0 -3.58887,-4.59423 -3.58887,-4.59423c0,0 -10.39942,8.125 -10.39942,8.125c0,0 -5.6123,-7.1836 -5.6123,-7.1836c0,0 11.35986,-8.87549 11.35986,-8.87549c0,0 -3.58935,-4.59424 -3.58935,-4.59424c0,0 -17.20703,13.44336 -17.20703,13.44336c0,0 22.77588,29.15186 22.77588,29.15186c0,0 0,0 0,0zm-30.8003,35.10693c0,0 4.46924,-5.51953 4.46924,-5.51953c0,0 -21.50049,-17.41064 -21.50049,-17.41064c0,0 0.0664,-0.0825 0.0664,-0.0825c0,0 30.40625,6.41357 30.40625,6.41357c0,0 5.70361,-7.04345 5.70361,-7.04345c0,0 -28.75,-23.28125 -28.75,-23.28125c0,0 -4.46924,5.51953 -4.46924,5.51953c0,0 21.50098,17.41113 21.50098,17.41113c0,0 -0.0669,0.082 -0.0669,0.082c0,0 -30.37256,-6.45459 -30.37256,-6.45459c0,0 -5.73731,7.08447 -5.73731,7.08447c0,0 28.75,23.28125 28.75,23.28125c0,0 0,0 0,0l0.00002,0.00001zm-19.9834,35.33057c0,0 3.4834,-6.55176 3.4834,-6.55176c0,0 -13.5708,-7.21582 -13.5708,-7.21582c0,0 1.11963,-2.10596 1.11963,-2.10596c1.46826,-2.76074 2.85156,-3.10546 5.78272,-2.74755c0,0 12.29199,1.49365 12.29199,1.49365c0,0 3.88135,-7.30029 3.88135,-7.30029c0,0 -15.56202,-1.55176 -15.56202,-1.55176c-1.79931,-0.11621 -4.125,-0.0327 -5.21093,1.67138c0,0 -0.0933,-0.0498 -0.0933,-0.0498c1.65284,-4.46338 -0.16064,-8.72949 -3.99804,-10.76953c-9.07862,-4.82715 -13.29834,3.67383 -17.03076,10.69336c0,0 -3.75733,7.06592 -3.75733,7.06592c0,0 32.66406,17.36816 32.66406,17.36816c0,0 0,0 0,0l0.00003,0zm-24.03271,-21.18213c0,0 1.14453,-2.15283 1.14453,-2.15283c1.7417,-3.27588 4.01025,-6.75195 7.94092,-4.66162c4.07129,2.16455 2.57373,6.11035 0.85693,9.33935c0,0 -1.14502,2.15284 -1.14502,2.15284c0,0 -8.79736,-4.67774 -8.79736,-4.67774c0,0 0,0 0,0zm-7.57959,56.62207c-6.2666,-1.79687 -11.85303,-6.5415 -9.82227,-13.62305c2.03028,-7.08154 9.28223,-8.1455 15.54883,-6.34863c6.41944,1.84131 12.11524,6.39649 10.02637,13.68213c-2.08936,7.28564 -9.3335,8.13037 -15.75293,6.28955c0,0 0,0 0,0zm-2.13281,7.43799c10.90234,3.12646 20.22558,-0.70606 23.49853,-12.11816c3.22803,-11.25928 -2.75635,-19.64698 -13.50635,-22.7295c-10.74951,-3.08252 -20.08691,1.02198 -23.28613,12.17969c-3.24316,11.31006 2.39111,19.54199 13.29395,22.66797c0,0 0,0 0,0zm10.38134,16.43603c0.74561,1.82081 1.07862,5.30811 0.82471,8.21192c-0.68799,7.86719 -6.74414,12.01904 -14.24121,11.36279c-7.55029,-0.66015 -12.94238,-5.92041 -12.27734,-13.52295c0.23095,-2.64013 0.82226,-5.14209 2.65136,-7.80176c0,0 -6.18408,-1.07324 -6.18408,-1.07324c-1.29199,2.60059 -2.04883,5.7793 -2.26123,8.20801c-1.09472,12.51367 5.30567,20.84131 17.92432,21.94482c12.46094,1.08985 19.16113,-6.67627 20.20508,-18.60839c0.24463,-2.79834 -0.0293,-5.74854 -0.43653,-8.49756c0,0 -6.20508,-0.22364 -6.20508,-0.22364c0,0 0,0 0,0z"/>
     <path fill-rule="nonzero" fill="#ed1c24" id="svg_4" d="m503.9659,-272.06838c0,0 -5.5,20.52734 -5.5,20.52734c0,0 19.10156,5.50391 19.10156,5.50391c-0.10351,-2.27734 0.15234,-4.45898 0.74219,-6.66016c1.09765,-4.0957 3.78125,-7.76562 8.38867,-6.53125c4.55664,1.22071 5.25391,5.57813 4.25391,9.31446c-0.83789,3.12304 -2.57032,5.29297 -3.75391,6.84179c0,0 6.35742,1.86719 6.35742,1.86719c1.20313,-2.20117 2.52735,-5.30273 3.26953,-8.06836c2.46875,-9.21484 -1.70507,-15.38086 -8.41211,-17.17773c-9.26562,-2.48242 -13.36132,3.38867 -14.70703,8.40429c-0.36914,1.38282 -0.45312,2.51368 -0.51953,3.37305c0,0 -7.58594,-2.19726 -7.58594,-2.19726c0,0 3.68946,-13.77149 3.68946,-13.77149c0,0 -5.32422,-1.42578 -5.32422,-1.42578c0,0 0,0 0,0zm1.32226,51.85547c1.44336,-3.24414 5.09766,-3.24024 8.39063,-1.77539c3.00195,1.33594 5.46875,4.00195 4.06836,7.14844c-1.48633,3.34179 -4.89844,3.44726 -8.09375,2.02343c-3.39063,-1.50781 -5.83203,-4.10351 -4.36524,-7.39648c0,0 0,0 0,0zm-12.00586,-16.94727c-1.85742,1.95703 -3.27929,4.10938 -4.3789,6.57813c-4.8711,10.9414 3.88476,18.3789 13.03515,22.45508c7.93946,3.5332 16.66993,4.92578 20.85352,-4.4668c3.4043,-7.65039 0.15039,-13.39258 -7.16016,-16.64648c-6.24609,-2.78125 -11.86523,-1.10547 -14.71093,5.28515c-1.27149,2.85547 -1.13477,5.41211 0.47851,8.04492c0,0 -0.13867,0.0547 -0.13867,0.0547c-4.95117,-2.43555 -9.48828,-6.83594 -6.88086,-12.69531c1.01367,-2.27539 2.41406,-3.85547 3.98633,-5.30274c0,0 -5.08399,-3.30664 -5.08399,-3.30664c0,0 0,0 0,0l0,-0.00001zm-3.30273,58.42383c-2.5625,-1.79297 -2.76562,-4.45898 -2.28711,-7.35937c2.58789,-1.94141 5.81445,-3.49805 8.80859,-1.40039c2.51954,1.76171 2.70118,4.73632 0.99805,7.16796c-1.70312,2.43165 -5.00195,3.35547 -7.51953,1.5918c0,0 0,0 0,0zm-14.18945,-10.32226c-2.42969,-1.70313 -2.09571,-4.76758 -0.54492,-6.98243c1.61132,-2.30078 4.17773,-2.63867 6.43554,-1.05859c1.86524,1.30859 2.58985,4.33789 2.01367,6.45703c-2.24218,1.53711 -5.29882,3.4082 -7.90429,1.58399c0,0 0,0 0,0zm6.40039,5.64648c-0.77344,4.89258 0.23242,8.44336 3.61914,10.81445c6.16601,4.31836 12.07812,1.33985 16.21289,-4.56445c4.19531,-5.99023 4.5957,-12.30859 -1.52539,-16.5957c-3.47266,-2.43164 -7.35547,-2.43164 -12.01758,0.25586c0,0 -0.0449,-0.0312 -0.0449,-0.0312c0.99609,-4.28516 -0.98828,-8.19727 -3.72266,-10.11328c-5.08008,-3.55665 -10.66797,-0.28711 -14.4082,5.05273c-3.85938,5.51367 -4.1875,11.43164 1.24023,15.23047c3.16993,2.2207 7.08594,1.98633 10.5586,-0.11133c0,0 0.0879,0.0625 0.0879,0.0625c0,0 0,0 0,0l-0.00003,-0.00005zm-35.04492,25.92578c0,0 6.05664,0.57617 6.05664,0.57617c0,0 0.54492,-8.04492 0.54492,-8.04492c0,0 20.89258,19.48242 20.89258,19.48242c0,0 5.06054,-5.42578 5.06054,-5.42578c0,0 -27.05664,-25.23047 -27.05664,-25.23047c0,0 -4.48242,4.80664 -4.48242,4.80664c0,0 -1.01562,13.83594 -1.01562,13.83594c0,0 0,0 0,0zm-9.8125,43.00391c0,0 6.0039,-4.36328 6.0039,-4.36328c0,0 -4.36133,-6.00196 -4.36133,-6.00196c0,0 -6.0039,4.36133 -6.0039,4.36133c0,0 4.36133,6.00391 4.36133,6.00391c0,0 0,0 0,0zm-42.3711,-11.32813c0,0 3.6836,-1.87695 3.6836,-1.87695c5.52539,-2.81445 12.95507,-1.42383 16.61132,5.75391c3.65821,7.17773 0.41407,14.0039 -5.10937,16.82031c0,0 -3.68359,1.87695 -3.68359,1.87695c0,0 -11.50196,-22.57422 -11.50196,-22.57422c0,0 0,0 0,0zm7.53711,31.13672c0,0 9.01953,-4.5957 9.01953,-4.5957c10.10547,-5.14844 17.29883,-13.09766 10.63282,-26.17774c-6.66407,-13.08007 -17.32227,-11.93359 -27.42774,-6.7832c0,0 -9.01953,4.59375 -9.01953,4.59375c0,0 16.79492,32.96289 16.79492,32.96289c0,0 0,0 0,0zm-25.27734,9.70703c0,0 6.97265,-2.53711 6.97265,-2.53711c0,0 -2.53906,-6.97265 -2.53906,-6.97265c0,0 -6.9707,2.53906 -6.9707,2.53906c0,0 2.53711,6.9707 2.53711,6.9707c0,0 0,0 0,0zm-46.09571,11.73633c0,0 7.45704,-1.85937 7.45704,-1.85937c0,0 1.08593,-9.00977 1.08593,-9.00977c0,0 14.55274,-3.62891 14.55274,-3.62891c0,0 5.13672,7.45899 5.13672,7.45899c0,0 7.97265,-1.98828 7.97265,-1.98828c0,0 -23.04101,-32.38086 -23.04101,-32.38086c0,0 -8.125,2.02539 -8.125,2.02539c0,0 -5.03907,39.38281 -5.03907,39.38281c0,0 0,0 0,0zm19.67969,-19.6543c0,0 -10.49023,2.61524 -10.49023,2.61524c0,0 1.5,-16.10547 1.5,-16.10547c0,0 0.10351,-0.0254 0.10351,-0.0254c0,0 8.88672,13.51562 8.88672,13.51562c0,0 0,0 0,0l0,0.00001zm-71.03076,-11.8457c0,0 4.11816,0.36133 4.11816,0.36133c6.17725,0.53906 11.7417,5.6543 11.03956,13.67969c-0.70215,8.02539 -7.07032,12.09765 -13.24756,11.55664c0,0 -4.11817,-0.35938 -4.11817,-0.35938c0,0 2.20801,-25.23828 2.20801,-25.23828c0,0 0,0 0,0zm-10.10791,30.39844c0,0 10.08398,0.88281 10.08398,0.88281c11.29932,0.98828 21.61133,-1.93945 22.89063,-16.56445c1.2793,-14.625 -8.36719,-19.30078 -19.66602,-20.28906c0,0 -10.08447,-0.88282 -10.08447,-0.88282c0,0 -3.22412,36.85352 -3.22412,36.85352c0,0 0,0 0,0zm-45.07227,-9.78906c0,0 21.0918,6.04687 21.0918,6.04687c0,0 1.60693,-5.60351 1.60693,-5.60351c0,0 -13.95947,-4.00391 -13.95947,-4.00391c0,0 2.86328,-9.98438 2.86328,-9.98438c0,0 12.68604,3.63672 12.68604,3.63672c0,0 1.60693,-5.60351 1.60693,-5.60351c0,0 -12.68603,-3.63867 -12.68603,-3.63867c0,0 2.51269,-8.76172 2.51269,-8.76172c0,0 13.85742,3.97265 13.85742,3.97265c0,0 1.60694,-5.60351 1.60694,-5.60351c0,0 -20.98975,-6.01953 -20.98975,-6.01953c0,0 -10.19678,35.5625 -10.19678,35.5625c0,0 0,0 0,0zm-26.37304,-44.83399c0,0 3.68359,1.87695 3.68359,1.87695c5.5249,2.81641 8.76758,9.64258 5.11035,16.82032c-3.65722,7.17773 -11.08691,8.56836 -16.61181,5.7539c0,0 -3.6836,-1.87695 -3.6836,-1.87695c0,0 11.50147,-22.57422 11.50147,-22.57422c0,0 0,0 0,0zm-20.75977,24.40039c0,0 9.02002,4.59571 9.02002,4.59571c10.10547,5.14843 20.76319,6.29492 27.42822,-6.78516c6.66504,-13.08008 -0.52783,-21.0293 -10.6333,-26.17774c0,0 -9.01953,-4.5957 -9.01953,-4.5957c0,0 -16.79541,32.96289 -16.79541,32.96289c0,0 0,0 0,0zm-45.44482,-32.39453c0,0 5.59668,4.37305 5.59668,4.37305c0,0 17.03271,-21.80078 17.03271,-21.80078c0,0 0.0835,0.0644 0.0835,0.0644c0,0 -5.88135,30.51367 -5.88135,30.51367c0,0 7.14111,5.58008 7.14111,5.58008c0,0 22.77588,-29.15234 22.77588,-29.15234c0,0 -5.59619,-4.37305 -5.59619,-4.37305c0,0 -17.03271,21.80078 -17.03271,21.80078c0,0 -0.084,-0.0644 -0.084,-0.0644c0,0 5.92383,-30.48047 5.92383,-30.48047c0,0 -7.18359,-5.61328 -7.18359,-5.61328c0,0 -22.77588,29.15234 -22.77588,29.15234c0,0 0,0 0,0l0.00001,0zm-23.66651,-47.74219c-7.81005,6.10157 -7.57421,13.04688 -1.73339,20.52344c5.84033,7.47461 12.52197,9.38477 20.33203,3.2832c0,0 18.62695,-14.55273 18.62695,-14.55273c0,0 -4.56787,-5.84766 -4.56787,-5.84766c0,0 -16.83106,13.15039 -16.83106,13.15039c-4.97021,3.88282 -9.46777,4.83985 -12.95947,0.3711c-3.49121,-4.46875 -1.47314,-8.59961 3.49658,-12.48438c0,0 16.83106,-13.14843 16.83106,-13.14843c0,0 -4.56787,-5.84766 -4.56787,-5.84766c0,0 -18.62696,14.55273 -18.62696,14.55273c0,0 0,0 0,0zm-18.27978,-43.73047c5.85937,-2.85742 13.18555,-3.07031 16.41504,3.55079c3.22949,6.62304 -1.44824,12.26562 -7.30713,15.12304c-6.00244,2.92774 -13.28369,3.35352 -16.60596,-3.45898c-3.32275,-6.8125 1.4961,-12.28711 7.49805,-15.21485c0,0 0,0 0,0zm-3.39209,-6.95507c-10.19385,4.97265 -14.55811,14.05859 -9.35401,24.73047c5.13477,10.52734 15.19483,12.75585 25.24561,7.85351c10.05176,-4.90234 14.24365,-14.20117 9.15576,-24.63281c-5.1582,-10.57617 -14.85303,-12.92188 -25.04736,-7.95117c0,0 0,0 0,0zm-27.38672,-26.50586c0,0 1.92041,7.16797 1.92041,7.16797c0,0 15.66553,-4.19727 15.66553,-4.19727c0,0 3.2373,12.08203 3.2373,12.08203c0,0 5.63135,-1.50976 5.63135,-1.50976c0,0 -3.2373,-12.08204 -3.2373,-12.08204c0,0 8.80517,-2.35937 8.80517,-2.35937c0,0 3.40234,12.69727 3.40234,12.69727c0,0 5.63086,-1.50977 5.63086,-1.50977c0,0 -5.32226,-19.86328 -5.32226,-19.86328c0,0 -35.7334,9.57422 -35.7334,9.57422c0,0 0,0 0,0z"/>
    </g>
   </g>
  </g>
 </g>
</svg>